<?xml version="1.0" standalone="no"?>
<!DOCTYPE svg PUBLIC "-//W3C//DTD SVG 20010904//EN"
 "http://www.w3.org/TR/2001/REC-SVG-20010904/DTD/svg10.dtd">
<svg version="1.0" xmlns="http://www.w3.org/2000/svg"
 width="1024.000000pt" height="940.000000pt" viewBox="0 0 1024.000000 940.000000"
 preserveAspectRatio="xMidYMid meet">

<g transform="translate(0.000000,940.000000) scale(0.100000,-0.100000)"
fill="#000000" stroke="none">
<path d="M5590 8970 c-131 -16 -288 -51 -530 -116 -330 -90 -416 -106 -595
-110 l-150 -3 -33 -48 c-40 -59 -77 -173 -93 -287 -26 -187 30 -359 156 -474
l65 -59 0 -96 c0 -80 25 -257 46 -329 4 -13 -7 -20 -48 -32 -29 -9 -68 -25
-85 -36 -27 -16 -33 -26 -33 -55 0 -29 6 -39 29 -52 26 -15 29 -23 35 -87 16
-170 71 -292 154 -343 35 -22 37 -26 73 -167 60 -235 135 -400 251 -558 52
-70 179 -196 229 -225 31 -19 38 -33 15 -33 -29 0 -219 -103 -295 -160 -118
-90 -223 -227 -302 -396 -21 -44 -75 -186 -120 -315 -44 -129 -101 -283 -126
-344 -41 -101 -204 -429 -222 -448 -12 -13 -54 92 -59 148 -2 31 4 81 17 132
12 45 21 107 21 138 0 52 4 62 44 113 94 121 130 236 124 392 -3 81 -8 105
-33 155 -64 131 -173 199 -317 199 -74 -1 -78 0 -78 22 0 88 -94 112 -480 121
-370 8 -538 -13 -602 -77 l-28 -28 0 -562 c0 -462 3 -567 14 -595 17 -39 74
-80 149 -106 72 -24 63 -24 -413 16 -678 58 -1109 93 -1205 100 l-90 7 -53
-55 -54 -54 92 -259 c231 -653 399 -1130 402 -1142 2 -10 -144 -58 -505 -166
-284 -85 -520 -161 -535 -173 -48 -35 -52 -67 -46 -298 4 -115 10 -218 15
-227 16 -31 48 -40 293 -85 292 -53 1918 -365 3041 -583 451 -88 1020 -198
1265 -245 245 -47 603 -117 795 -155 755 -149 712 -142 774 -129 46 9 97 27
187 65 7 3 1 -24 -12 -63 -114 -326 -264 -775 -264 -788 0 -11 11 -15 48 -15
38 0 69 11 163 60 l115 60 23 73 c13 39 70 201 127 359 57 157 119 334 136
393 l33 106 100 46 c55 25 147 66 205 93 547 248 781 352 786 348 1 -2 -78
-228 -176 -503 -99 -275 -180 -507 -180 -516 0 -20 20 -39 40 -38 8 0 73 35
145 77 l130 77 186 528 c103 291 189 530 191 532 6 6 378 181 668 315 269 125
297 139 313 171 15 29 17 56 15 196 -3 136 -6 165 -20 179 -12 13 -68 24 -213
43 l-197 25 7 36 c4 19 10 384 14 810 7 744 8 780 30 899 24 134 71 310 145
544 92 293 122 524 92 714 -27 180 -89 306 -247 503 -245 307 -283 383 -379
768 -70 279 -97 367 -146 464 -73 144 -207 236 -410 281 -85 18 -131 21 -329
21 -258 1 -325 -9 -441 -64 -87 -42 -178 -133 -226 -226 -21 -39 -70 -171
-111 -295 -118 -356 -163 -445 -291 -567 -73 -70 -123 -96 -167 -87 -32 7 -46
42 -74 189 -21 110 -21 112 29 141 62 36 167 151 211 230 63 112 87 204 83
310 -4 72 -9 100 -31 141 -24 47 -70 97 -98 106 -8 3 -1 62 26 203 41 224 54
412 36 510 -34 182 -183 326 -357 343 l-68 7 -43 71 c-54 90 -153 184 -235
222 -134 64 -359 93 -538 72z m486 -619 c-29 -54 -46 -154 -46 -264 0 -170 41
-329 110 -422 31 -41 103 -182 115 -222 5 -18 2 -23 -12 -23 -19 1 -143 27
-263 56 -107 26 -413 26 -520 1 -78 -18 -177 -67 -187 -92 -4 -12 -17 -14 -57
-9 -28 3 -77 1 -109 -5 -55 -10 -60 -9 -96 14 -91 61 -221 81 -416 65 l-60 -5
-7 110 c-12 166 14 465 40 465 4 0 41 -11 83 -25 382 -122 990 33 1384 353 28
22 51 39 53 37 2 -2 -4 -17 -12 -34z m659 -897 c17 -8 39 -28 49 -46 24 -40
32 -146 16 -221 -26 -128 -139 -296 -237 -353 -40 -24 -51 -26 -108 -20 -64 6
-64 6 -70 -21 -19 -88 -73 -239 -116 -321 -125 -240 -276 -391 -492 -492 -145
-68 -221 -85 -387 -85 -128 1 -151 3 -193 23 -252 116 -454 424 -541 828 l-7
31 93 7 c51 3 103 9 116 12 20 6 22 3 22 -40 0 -69 22 -103 85 -133 61 -27
159 -33 223 -12 78 25 130 89 87 106 -9 3 -42 -2 -74 -11 -72 -20 -163 -21
-201 -1 -58 30 -66 90 -20 151 17 22 46 87 66 149 29 88 36 127 38 195 l1 85
38 6 c20 3 54 3 75 0 35 -6 37 -8 40 -46 5 -75 34 -190 65 -253 61 -125 156
-172 346 -172 185 0 277 38 338 139 37 62 51 121 62 262 6 82 12 105 26 116
25 17 79 17 143 -2 l52 -16 0 -65 c0 -77 20 -134 48 -134 27 0 35 13 72 104
50 126 112 201 202 241 37 17 94 13 143 -11z m1681 -3 c110 -79 153 -178 254
-581 93 -369 152 -490 377 -773 229 -288 273 -402 260 -680 -7 -157 -32 -272
-117 -541 -78 -251 -115 -414 -141 -621 -6 -50 -15 -413 -20 -810 -5 -396 -12
-742 -15 -769 l-6 -48 -52 6 c-28 4 -71 9 -94 12 l-44 7 6 41 c4 22 10 356 15
741 5 402 14 738 20 790 27 212 56 346 136 620 108 370 135 506 135 670 0 203
-46 317 -215 540 -125 164 -232 320 -267 390 -42 83 -84 228 -133 465 -65 317
-89 405 -150 553 -10 25 6 21 51 -12z m-2530 -42 c82 -21 104 -82 84 -228 -30
-218 -101 -281 -320 -281 -214 0 -293 68 -331 284 -6 37 -8 81 -5 100 11 59
71 96 196 121 82 16 316 19 376 4z m-984 -59 c81 -30 98 -55 98 -144 0 -41 -9
-103 -21 -146 -43 -158 -83 -190 -230 -190 -52 0 -100 4 -107 8 -12 8 -88 470
-78 479 11 12 118 21 196 18 56 -2 104 -10 142 -25z m-397 -197 c14 -92 27
-183 29 -202 5 -33 5 -33 -16 -15 -52 48 -88 165 -88 289 0 65 3 76 22 89 12
9 24 14 26 12 2 -2 14 -80 27 -173z m2000 -633 c14 -63 38 -137 61 -185 36
-74 39 -87 39 -165 -1 -74 -5 -95 -34 -163 -85 -200 -232 -364 -400 -447 -153
-76 -382 -78 -479 -3 -31 23 -71 90 -72 119 0 6 31 16 69 22 130 22 248 91
372 219 159 163 304 442 390 753 l13 45 9 -45 c5 -25 19 -92 32 -150z m1066
140 c38 -21 49 -62 49 -187 -1 -180 -17 -226 -97 -271 -52 -28 -181 -41 -237
-22 -80 26 -84 89 -15 229 34 70 59 103 131 174 92 91 119 103 169 77z m553
-15 c110 -84 226 -295 229 -419 2 -53 0 -60 -26 -80 -26 -19 -39 -21 -129 -18
-139 4 -193 33 -224 119 -19 53 -19 312 0 357 28 67 93 85 150 41z m-1362
-398 c126 -85 303 -174 504 -253 524 -204 709 -305 864 -470 165 -175 268
-397 356 -761 60 -250 183 -872 208 -1053 18 -122 13 -150 -23 -150 -24 0 -27
3 -23 28 16 112 -340 242 -663 242 -238 -1 -465 -66 -545 -156 -32 -37 -32
-39 -28 -115 4 -62 2 -76 -9 -72 -31 12 -44 68 -69 305 -31 298 -42 656 -25
818 22 209 87 464 151 590 41 82 126 204 189 273 67 71 68 85 5 39 -109 -79
-228 -244 -297 -412 -111 -270 -155 -537 -144 -885 7 -207 50 -665 67 -711 18
-47 60 -84 103 -91 41 -6 42 -8 51 -64 l6 -35 -147 -47 c-185 -58 -319 -95
-496 -137 -132 -31 -139 -31 -178 -16 -80 32 -264 12 -359 -40 l-49 -27 -298
106 c-164 59 -323 112 -353 118 -79 17 -167 5 -302 -41 -67 -23 -124 -38 -129
-33 -4 4 -26 96 -49 203 -49 232 -125 558 -185 800 -24 96 -69 299 -100 450
-31 151 -61 279 -65 284 -15 16 -23 -43 -16 -122 21 -249 71 -540 156 -910 28
-119 50 -221 50 -225 0 -5 -52 41 -116 102 -134 129 -288 236 -407 282 -86 33
-204 59 -268 59 -26 0 -42 5 -45 15 -4 8 18 58 49 112 116 206 197 392 297
678 139 398 199 514 337 646 104 101 235 181 375 229 61 21 71 22 110 10 24
-7 79 -15 124 -18 l81 -5 22 -74 c37 -125 100 -200 215 -254 145 -68 308 -64
489 11 189 78 339 232 447 457 71 146 86 243 50 333 -11 27 -18 50 -15 50 2 0
46 -28 97 -63z m-3212 -736 c66 -12 101 -30 64 -32 -46 -4 -169 -7 -472 -14
-246 -6 -333 -5 -367 5 -25 7 -42 16 -40 20 3 4 44 13 92 20 49 6 95 13 103
15 36 9 561 -4 620 -14z m114 -103 c3 -18 7 -244 10 -501 5 -401 4 -473 -9
-497 -22 -42 -120 -86 -235 -106 -143 -24 -477 -15 -575 16 -114 36 -133 48
-145 89 -6 22 -10 227 -10 530 l0 494 38 -7 c20 -3 73 -13 117 -21 44 -9 168
-18 275 -21 167 -5 215 -3 330 14 74 12 146 25 160 31 37 15 39 14 44 -21z
m251 -37 c89 -40 138 -110 158 -225 21 -126 -32 -287 -140 -421 -47 -58 -132
-125 -158 -125 -8 0 -15 17 -18 43 -4 41 -2 44 60 108 114 115 167 221 168
334 0 117 -82 200 -191 194 -50 -3 -62 7 -63 58 -2 49 107 69 184 34z m-48
-193 c32 -36 43 -63 43 -110 0 -65 -9 -72 -58 -48 -22 11 -49 20 -59 20 -31 0
-40 13 -47 68 -9 72 3 92 58 92 31 0 48 -6 63 -22z m-47 -223 c17 -9 30 -22
30 -29 0 -8 -19 -38 -42 -68 l-43 -53 -6 30 c-4 17 -7 54 -8 83 -1 46 1 52 19
52 12 0 34 -7 50 -15z m87 -387 c-2 -7 -12 -54 -23 -105 -23 -118 -13 -192 45
-308 45 -92 74 -132 216 -300 173 -204 252 -323 295 -443 13 -34 26 -65 31
-68 15 -9 22 88 10 141 -25 113 -112 252 -275 443 l-96 112 38 0 c57 0 181
-34 248 -69 135 -68 300 -201 429 -346 l69 -76 -28 -57 c-80 -163 -263 -456
-334 -533 -58 -63 -146 -109 -224 -117 l-47 -4 -16 53 c-8 30 -83 293 -166
584 -171 602 -174 611 -204 641 -33 33 -76 41 -337 60 -131 10 -238 22 -238
26 0 4 17 8 38 8 108 0 262 42 337 92 52 35 84 90 85 146 0 34 6 41 85 96 54
37 70 43 62 24z m-93 -520 c8 -13 69 -216 136 -453 91 -319 384 -1332 456
-1577 4 -13 0 -18 -14 -18 -11 0 -22 8 -25 18 -2 9 -37 120 -76 246 -112 360
-521 1766 -521 1793 0 21 28 15 44 -9z m4414 -347 c115 -24 261 -74 295 -101
21 -18 22 -24 25 -252 2 -128 -1 -306 -8 -396 -28 -398 -57 -447 -292 -478
-142 -18 -401 -41 -578 -49 -177 -9 -891 22 -908 39 -2 3 3 15 12 28 9 12 16
41 16 64 0 29 6 46 21 60 66 60 84 186 39 279 -13 27 -43 68 -66 92 l-42 42
56 11 c132 27 200 44 442 116 337 100 441 124 580 130 94 5 134 2 217 -15 55
-12 105 -21 109 -21 23 0 -47 52 -109 81 -67 31 -81 33 -197 37 -89 3 -150 -1
-214 -12 -48 -10 -90 -15 -93 -13 -10 10 -24 150 -21 209 l3 63 63 31 c163 80
418 102 650 55z m-3222 -398 c13 -59 26 -118 29 -129 4 -17 -9 -32 -65 -73
-61 -46 -138 -124 -223 -225 l-24 -29 -76 13 -77 13 43 46 c51 55 121 158 201
296 36 63 69 107 89 120 18 11 41 34 52 51 11 18 21 30 23 29 2 -2 14 -52 28
-112z m-2206 70 c0 -29 32 -321 41 -376 6 -38 9 -70 7 -72 -2 -2 -23 27 -47
65 -23 39 -47 70 -52 70 -5 0 -65 -36 -134 -80 -136 -88 -155 -98 -155 -81 0
6 38 66 83 133 126 185 161 238 197 296 18 28 38 52 46 52 8 0 14 -3 14 -7z
m2786 -197 c44 -13 194 -65 334 -116 237 -87 261 -94 347 -98 l91 -4 -13 -32
c-40 -95 -23 -207 43 -274 20 -22 44 -43 54 -48 11 -6 17 -25 19 -59 l3 -50
-56 -7 c-31 -4 -96 -23 -146 -42 -111 -43 -182 -55 -263 -44 -60 8 -237 73
-384 141 l-69 33 59 22 c62 22 135 75 123 87 -11 12 -170 -21 -238 -49 -74
-30 -202 -102 -285 -161 -82 -58 -122 -77 -145 -70 -53 17 3 106 132 210 58
46 131 90 244 145 88 44 169 89 179 100 18 20 18 20 -31 20 -64 0 -190 -44
-289 -100 -81 -46 -155 -113 -272 -246 -74 -85 -121 -112 -164 -94 -40 17 -37
38 15 107 24 32 51 72 59 90 27 51 174 199 245 247 37 24 100 60 141 81 87 44
151 84 151 96 0 20 -89 7 -166 -24 -177 -72 -308 -182 -445 -375 -81 -114 -97
-130 -142 -154 -44 -22 -64 -18 -76 14 -16 42 44 148 181 320 137 172 242 243
478 322 126 43 179 45 286 12z m1018 -158 c118 -74 158 -109 183 -164 30 -66
26 -107 -14 -155 -40 -47 -96 -69 -176 -69 -74 0 -107 12 -149 57 -72 75 -76
197 -9 257 27 25 27 37 -4 66 -35 33 -17 42 66 36 45 -3 77 -12 103 -28z
m-1957 -244 c20 -6 20 -7 5 -35 -20 -34 -18 -34 -202 -14 -74 8 -143 15 -152
15 -36 0 -17 20 20 21 20 0 55 7 77 14 40 14 201 13 252 -1z m-3057 -267 c73
-221 85 -251 111 -266 18 -11 113 -30 266 -54 131 -20 380 -59 553 -87 173
-28 457 -73 630 -101 173 -27 520 -83 770 -124 250 -41 471 -75 491 -75 20 0
97 23 170 51 74 27 330 120 569 205 655 233 650 231 650 291 l0 22 44 -19
c131 -58 262 -63 377 -15 108 46 139 52 150 33 14 -25 73 -38 174 -38 67 0
100 5 125 17 30 16 51 17 155 11 423 -25 1148 -18 1396 13 45 5 83 9 84 7 2
-2 -85 -41 -193 -88 -254 -108 -1089 -472 -1392 -605 -893 -392 -849 -375
-969 -375 -93 0 -156 10 -1106 185 -286 52 -776 142 -1090 200 -708 129 -752
137 -1280 236 -374 70 -1703 320 -1776 335 -21 4 -28 12 -33 42 -10 61 -7 127
7 146 8 11 70 34 162 61 83 23 294 86 470 138 389 116 388 116 396 108 4 -3
44 -118 89 -254z m5111 16 c-7 -27 -9 -28 -82 -28 -73 0 -74 0 -77 28 l-3 27
84 0 85 0 -7 -27z m2673 -63 c-11 -11 -167 -80 -774 -342 -256 -110 -622 -270
-815 -355 -1195 -529 -1269 -561 -1263 -541 7 21 1590 734 2168 976 227 95
670 271 685 271 5 1 5 -3 -1 -9z m-4665 -85 c168 -31 307 -58 309 -60 3 -3 -3
-8 -13 -11 -25 -10 -568 87 -607 107 -20 11 -25 31 -5 24 6 -3 149 -30 316
-60z m886 26 c-20 -19 -1055 -391 -1087 -391 -4 0 -8 4 -8 9 0 16 279 118 785
287 338 113 323 108 310 95z m-1035 -101 c188 -46 233 -61 223 -71 -9 -9 -251
34 -338 59 -30 8 -48 42 -23 42 7 0 70 -14 138 -30z m-32 -120 c54 -14 64 -23
35 -34 -21 -8 -103 3 -103 14 0 5 -3 16 -7 26 -5 13 -2 16 8 12 8 -3 38 -11
67 -18z"/>
<path d="M5545 7663 c-45 -10 -152 -47 -187 -65 -31 -15 -38 -24 -38 -48 0
-36 31 -70 63 -70 12 0 67 16 122 36 88 31 115 36 227 41 134 6 152 11 143 35
-19 49 -226 94 -330 71z"/>
<path d="M4702 7610 c-52 -8 -87 -25 -129 -63 -26 -23 -32 -73 -9 -64 48 19
156 18 243 -2 151 -34 183 -27 183 42 0 42 -49 69 -155 82 -27 4 -57 8 -65 9
-8 2 -39 0 -68 -4z"/>
<path d="M6569 7297 c-48 -32 -92 -124 -93 -196 -1 -80 20 -74 51 14 29 81 66
135 93 135 10 0 30 -13 43 -30 34 -40 47 -38 47 6 0 26 -8 43 -29 65 -35 35
-67 37 -112 6z"/>
<path d="M5230 6406 c-68 -15 -116 -40 -131 -67 -12 -24 4 -43 29 -34 8 3 52
13 99 22 73 14 95 15 166 4 129 -20 152 -20 152 4 0 27 -64 61 -140 74 -75 13
-104 13 -175 -3z"/>
<path d="M5492 7258 c-17 -17 -15 -132 3 -176 19 -45 53 -82 75 -82 24 0 59
41 66 77 8 42 -21 139 -51 169 -26 26 -73 32 -93 12z"/>
<path d="M4738 7218 c-29 -55 6 -214 54 -239 85 -45 124 155 46 238 -29 31
-83 32 -100 1z"/>
<path d="M6831 5895 c-137 -365 -472 -639 -823 -673 -264 -26 -465 65 -579
262 -16 28 -41 89 -56 136 -24 79 -27 83 -35 55 -9 -33 2 -106 27 -175 54
-152 210 -283 386 -325 122 -28 300 -18 439 27 293 94 583 380 664 657 30 101
12 129 -23 36z"/>
<path d="M3216 5187 c-4 -22 -30 -62 -70 -109 -72 -85 -86 -107 -86 -141 0
-26 35 -77 52 -77 6 0 4 8 -5 18 -22 24 -22 71 0 102 9 14 38 48 63 76 55 58
83 107 78 136 -5 35 -25 31 -32 -5z"/>
<path d="M3253 5051 c-96 -76 -110 -109 -73 -182 22 -42 17 -68 -18 -88 -15
-9 -15 -10 3 -11 32 0 65 28 65 56 0 14 -9 42 -20 64 -11 22 -20 44 -20 50 0
7 28 41 62 76 34 35 59 66 56 69 -3 3 -28 -12 -55 -34z"/>
<path d="M3345 4830 c-18 -8 -17 -9 8 -9 39 -1 56 -40 34 -75 -9 -13 -26 -27
-37 -31 -11 -3 -20 -10 -20 -15 0 -15 60 11 75 33 22 32 19 73 -7 91 -25 18
-25 18 -53 6z"/>
<path d="M2962 4794 c-52 -36 -8 -86 91 -103 90 -16 257 5 257 31 0 6 -7 7
-17 2 -35 -15 -226 -16 -273 -1 -44 14 -44 14 45 9 86 -4 232 11 247 26 4 4
-39 7 -95 7 -56 0 -128 4 -159 8 -57 8 -75 21 -40 30 11 3 9 5 -8 6 -14 0 -36
-6 -48 -15z m113 -35 c43 -7 40 -7 -19 -3 -38 3 -77 9 -85 15 -12 7 -6 8 19 3
19 -4 58 -10 85 -15z"/>
<path d="M3010 4630 c-8 -5 -11 -10 -5 -10 5 0 4 -5 -3 -12 -23 -23 -11 -28
72 -28 111 0 146 7 138 29 -3 9 -10 19 -16 23 -16 11 -169 9 -186 -2z"/>
<path d="M2920 4580 c-26 -26 -21 -33 43 -67 50 -27 57 -28 207 -28 174 0 213
10 218 56 3 22 -2 29 -29 38 -42 14 -48 14 -25 -4 17 -13 15 -14 -20 -22 -65
-14 -274 -10 -326 6 -41 13 -44 16 -30 28 16 11 16 12 0 13 -10 0 -27 -9 -38
-20z m58 -40 c60 -23 226 -28 326 -9 32 6 60 8 63 5 13 -13 -60 -29 -152 -33
-110 -6 -193 6 -258 36 -55 25 -45 26 21 1z"/>
<path d="M6543 2894 c-21 -16 -33 -34 -33 -50 0 -27 12 -31 30 -9 11 14 15 12
31 -14 10 -17 37 -40 60 -51 46 -24 59 -22 29 5 -14 12 -20 31 -20 59 0 40 0
40 -16 18 -9 -13 -13 -29 -10 -37 3 -8 1 -15 -4 -15 -11 0 -24 84 -16 105 8
23 -15 18 -51 -11z"/>
<path d="M3133 6476 c3 -8 11 -42 17 -76 19 -105 1 -149 -107 -264 -97 -103
-116 -142 -117 -231 -1 -59 3 -77 27 -117 35 -61 137 -133 137 -98 0 5 -16 39
-36 76 -68 123 -49 202 76 314 87 77 120 137 120 220 0 59 -26 129 -62 168
-24 25 -64 31 -55 8z"/>
<path d="M3376 6165 c-9 -22 -48 -72 -86 -111 -79 -81 -110 -138 -110 -204 0
-45 35 -125 55 -125 6 0 13 29 16 65 7 77 24 113 95 200 74 92 92 151 60 195
-13 18 -15 17 -30 -20z"/>
</g>
</svg>
